<svg width="20" height="20" viewBox="0 0 20 20" fill="none" xmlns="http://www.w3.org/2000/svg">
<path d="M9.59669 1.67672C5.17169 1.88505 1.68086 5.54339 1.69419 9.94089C1.69638 11.2353 2.00629 12.5106 2.59836 13.6617L1.71669 17.9126C1.70593 17.9657 1.70875 18.0207 1.72488 18.0725C1.74101 18.1242 1.76993 18.1711 1.80898 18.2087C1.84802 18.2464 1.89592 18.2735 1.94825 18.2878C2.00058 18.302 2.05564 18.3028 2.10836 18.2901L6.30336 17.3034C7.41443 17.8524 8.63415 18.1463 9.87336 18.1634C14.3959 18.2326 18.1659 14.6676 18.3067 10.1801C18.4584 5.36755 14.4592 1.44589 9.59669 1.67589V1.67672ZM14.6025 14.4826C13.9979 15.085 13.2804 15.5622 12.491 15.8868C11.7017 16.2114 10.856 16.377 10.0025 16.3742C8.99837 16.3773 8.00726 16.1468 7.10753 15.7009L6.52336 15.4117L3.95086 16.0167L4.49252 13.4076L4.20419 12.8476C3.73677 11.9415 3.49439 10.9362 3.49752 9.91672C3.49752 8.19172 4.17419 6.56922 5.40252 5.35005C6.62685 4.13814 8.27982 3.45809 10.0025 3.45755C11.7409 3.45755 13.3742 4.12922 14.6025 5.34922C15.2077 5.94558 15.6879 6.65659 16.0152 7.44069C16.3424 8.22479 16.5101 9.06625 16.5084 9.91589C16.5084 11.6259 15.8209 13.2742 14.6025 14.4834V14.4826Z" fill="#064E3B"/>
<path d="M14.035 11.7041L12.4258 11.2458C12.322 11.216 12.212 11.2146 12.1075 11.2419C12.003 11.2692 11.9077 11.3241 11.8316 11.4008L11.4383 11.7991C11.3569 11.8816 11.253 11.9382 11.1397 11.9619C11.0263 11.9856 10.9084 11.9754 10.8008 11.9325C10.04 11.6266 8.43831 10.2133 8.02914 9.50579C7.97178 9.40586 7.94558 9.29108 7.9539 9.17616C7.96221 9.06124 8.00466 8.95142 8.07581 8.86079L8.41914 8.41912C8.48524 8.3345 8.52706 8.23349 8.54012 8.12691C8.55319 8.02033 8.53701 7.91221 8.49331 7.81412L7.81664 6.29412C7.77837 6.20917 7.72091 6.13424 7.64879 6.07525C7.57667 6.01625 7.49185 5.97478 7.40099 5.95411C7.31013 5.93343 7.21572 5.93411 7.12517 5.95609C7.03462 5.97807 6.9504 6.02076 6.87914 6.08079C6.42997 6.45829 5.89664 7.03079 5.83247 7.66662C5.71831 8.78579 6.20164 10.1966 8.02997 11.8916C10.1425 13.8491 11.835 14.1083 12.9358 13.8425C13.5608 13.6925 14.0608 13.09 14.375 12.5975C14.4252 12.5192 14.4564 12.4303 14.466 12.3378C14.4756 12.2453 14.4634 12.1519 14.4303 12.065C14.3973 11.9781 14.3443 11.9002 14.2756 11.8375C14.2069 11.7748 14.1245 11.7292 14.035 11.7041V11.7041Z" fill="#064E3B"/>
</svg>
